<svg xmlns="http://www.w3.org/2000/svg" xmlns:xlink="http://www.w3.org/1999/xlink" width="200" zoomAndPan="magnify" viewBox="0 0 150 37.5" height="50" preserveAspectRatio="xMidYMid meet" version="1.0"><defs><g/><clipPath id="d98ec04541"><path d="M 0.988281 3.882812 L 149.011719 3.882812 L 149.011719 33.878906 L 0.988281 33.878906 Z M 0.988281 3.882812 " clip-rule="nonzero"/></clipPath></defs><path stroke-linecap="butt" transform="matrix(0.347454, 0, 0, 0.347454, 4.839803, 2.083896)" fill="none" stroke-linejoin="miter" d="M 0.000116593 2.996381 L 403.853277 2.996381 " stroke="#ffffff" stroke-width="6" stroke-opacity="1" stroke-miterlimit="4"/><path stroke-linecap="butt" transform="matrix(0.347454, 0, 0, 0.347454, 4.839803, 32.837961)" fill="none" stroke-linejoin="miter" d="M 0.000116593 2.995924 L 403.853277 2.995924 " stroke="#ffffff" stroke-width="6" stroke-opacity="1" stroke-miterlimit="4"/><g clip-path="url(#d98ec04541)"><path fill="transparent" d="M -4.664062 3.882812 L 154.664062 3.882812 L 154.664062 33.878906 L -4.664062 33.878906 Z M -4.664062 3.882812 " fill-opacity="1" fill-rule="nonzero"/></g><g fill="#ffffff" fill-opacity="1"><g transform="translate(6.146689, 22.646984)"><g><path d="M 0.539062 0 L 1.695312 0 C 3.394531 0 4.21875 -0.941406 4.21875 -2.5 L 4.21875 -8.027344 L 3.53125 -8.027344 L 3.53125 -2.535156 C 3.53125 -1.339844 3.003906 -0.664062 1.695312 -0.664062 L 0.539062 -0.664062 Z M 0.539062 0 "/></g></g></g><g fill="#ffffff" fill-opacity="1"><g transform="translate(17.372257, 22.646984)"><g><path d="M 4.871094 0.148438 C 7.328125 0.148438 9.011719 -1.558594 9.011719 -4.011719 C 9.011719 -6.46875 7.328125 -8.175781 4.871094 -8.175781 C 2.429688 -8.175781 0.734375 -6.46875 0.734375 -4.011719 C 0.734375 -1.558594 2.429688 0.148438 4.871094 0.148438 Z M 1.445312 -4.011719 C 1.445312 -6.078125 2.84375 -7.476562 4.871094 -7.476562 C 6.914062 -7.476562 8.3125 -6.078125 8.3125 -4.011719 C 8.3125 -1.960938 6.914062 -0.550781 4.871094 -0.550781 C 2.84375 -0.550781 1.445312 -1.960938 1.445312 -4.011719 Z M 1.445312 -4.011719 "/></g></g></g><g fill="#ffffff" fill-opacity="1"><g transform="translate(32.851701, 22.646984)"><g><path d="M 1.296875 0 L 1.984375 0 L 1.984375 -6.832031 L 6.867188 0 L 7.523438 0 L 7.523438 -8.027344 L 6.832031 -8.027344 L 6.832031 -1.203125 L 1.949219 -8.027344 L 1.296875 -8.027344 Z M 1.296875 0 "/></g></g></g><g fill="#ffffff" fill-opacity="1"><g transform="translate(47.402405, 22.646984)"><g/></g></g><g fill="#ffffff" fill-opacity="1"><g transform="translate(56.208654, 22.646984)"><g><path d="M 1.296875 0 L 1.996094 0 L 1.996094 -6.742188 L 5 -2.234375 L 5.574219 -2.234375 L 8.578125 -6.742188 L 8.578125 0 L 9.265625 0 L 9.265625 -8.027344 L 8.621094 -8.027344 L 5.285156 -3.003906 L 1.949219 -8.027344 L 1.296875 -8.027344 Z M 1.296875 0 "/></g></g></g><g fill="#ffffff" fill-opacity="1"><g transform="translate(72.502183, 22.646984)"><g><path d="M 1.296875 0 L 1.996094 0 L 1.996094 -8.027344 L 1.296875 -8.027344 Z M 1.296875 0 "/></g></g></g><g fill="#ffffff" fill-opacity="1"><g transform="translate(81.526285, 22.646984)"><g><path d="M 4.804688 0.148438 C 6.695312 0.148438 8.242188 -0.964844 8.738281 -2.695312 L 8.003906 -2.695312 C 7.554688 -1.363281 6.316406 -0.550781 4.816406 -0.550781 C 2.855469 -0.550781 1.445312 -1.960938 1.445312 -4.011719 C 1.445312 -6.066406 2.855469 -7.476562 4.816406 -7.476562 C 6.285156 -7.476562 7.476562 -6.695312 7.933594 -5.421875 L 8.667969 -5.421875 C 8.140625 -7.109375 6.640625 -8.175781 4.804688 -8.175781 C 2.441406 -8.175781 0.734375 -6.457031 0.734375 -4.011719 C 0.734375 -1.570312 2.441406 0.148438 4.804688 0.148438 Z M 4.804688 0.148438 "/></g></g></g><g fill="#ffffff" fill-opacity="1"><g transform="translate(96.684678, 22.646984)"><g><path d="M 6.695312 0 L 7.394531 0 L 7.394531 -8.027344 L 6.695312 -8.027344 L 6.695312 -4.425781 L 1.996094 -4.425781 L 1.996094 -8.027344 L 1.296875 -8.027344 L 1.296875 0 L 1.996094 0 L 1.996094 -3.761719 L 6.695312 -3.761719 Z M 6.695312 0 "/></g></g></g><g fill="#ffffff" fill-opacity="1"><g transform="translate(111.109248, 22.646984)"><g><path d="M 0.253906 0 L 0.996094 0 L 1.824219 -2.019531 L 5.996094 -2.019531 L 6.832031 0 L 7.566406 0 L 4.242188 -8.027344 L 3.578125 -8.027344 Z M 2.097656 -2.660156 L 3.910156 -7.074219 L 5.734375 -2.660156 Z M 2.097656 -2.660156 "/></g></g></g><g fill="#ffffff" fill-opacity="1"><g transform="translate(124.673879, 22.646984)"><g><path d="M 1.296875 0 L 6.144531 0 L 6.144531 -0.652344 L 1.996094 -0.652344 L 1.996094 -3.773438 L 5.722656 -3.773438 L 5.722656 -4.414062 L 1.996094 -4.414062 L 1.996094 -7.371094 L 6.019531 -7.371094 L 6.019531 -8.027344 L 1.296875 -8.027344 Z M 1.296875 0 "/></g></g></g><g fill="#ffffff" fill-opacity="1"><g transform="translate(137.390022, 22.646984)"><g><path d="M 1.296875 0 L 6.066406 0 L 6.066406 -0.664062 L 1.996094 -0.664062 L 1.996094 -8.027344 L 1.296875 -8.027344 Z M 1.296875 0 "/></g></g></g></svg>