<svg xmlns="http://www.w3.org/2000/svg" xmlns:xlink="http://www.w3.org/1999/xlink" width="500" zoomAndPan="magnify" viewBox="0 0 375 374.999991" height="500" preserveAspectRatio="xMidYMid meet" version="1.0"><defs><g/><clipPath id="224b205978"><path d="M 15.542969 155.125 L 359.457031 155.125 L 359.457031 219.875 L 15.542969 219.875 Z M 15.542969 155.125 " clip-rule="nonzero"/></clipPath></defs><g fill="#ffffff" fill-opacity="1"><g transform="translate(58.650973, 306.158521)"><g><path d="M 59.355469 -240.914062 L 73.320312 -240.914062 L 73.320312 -244.40625 L 17.457031 -244.40625 L 17.457031 -240.914062 L 31.421875 -240.914062 L 31.421875 -31.421875 C 31.421875 -0.699219 17.457031 24.441406 0 24.441406 L 0 27.933594 C 32.820312 27.933594 59.355469 1.398438 59.355469 -31.421875 Z M 59.355469 -240.914062 "/></g></g></g><g fill="#ffffff" fill-opacity="1"><g transform="translate(130.924331, 306.158521)"><g><path d="M 8.730469 -244.40625 L 8.730469 -240.914062 C 19.902344 -240.914062 24.441406 -236.375 24.441406 -230.441406 L 24.441406 -13.964844 C 24.441406 -8.03125 19.902344 -3.492188 8.730469 -3.492188 L 8.730469 0 L 41.898438 0 L 41.898438 -3.492188 L 27.933594 -3.492188 L 27.933594 -217.171875 L 80.304688 0 L 85.890625 0 L 133.027344 -227.296875 L 133.027344 -3.492188 L 119.058594 -3.492188 L 119.058594 0 L 174.925781 0 L 174.925781 -3.492188 L 160.957031 -3.492188 L 160.957031 -240.914062 L 174.925781 -240.914062 L 174.925781 -244.40625 L 133.027344 -244.40625 L 94.621094 -58.65625 L 49.929688 -244.40625 Z M 8.730469 -244.40625 "/></g></g></g><path stroke-linecap="butt" transform="matrix(0.75, 0, 0, 0.75, 36.054996, 151.23941)" fill="none" stroke-linejoin="miter" d="M -0.000411297 2.998495 L 403.853782 2.998495 " stroke="#ffffff" stroke-width="6" stroke-opacity="1" stroke-miterlimit="4"/><path stroke-linecap="butt" transform="matrix(0.75, 0, 0, 0.75, 36.054996, 217.623898)" fill="none" stroke-linejoin="miter" d="M -0.000411297 3.00147 L 403.853782 3.00147 " stroke="#ffffff" stroke-width="6" stroke-opacity="1" stroke-miterlimit="4"/><g clip-path="url(#224b205978)"><path fill="#000000" d="M 15.542969 155.125 L 359.457031 155.125 L 359.457031 219.875 L 15.542969 219.875 Z M 15.542969 155.125 " fill-opacity="1" fill-rule="nonzero"/></g><g fill="#ffffff" fill-opacity="1"><g transform="translate(37.3911, 195.626075)"><g><path d="M 1.175781 0 L 3.699219 0 C 7.398438 0 9.199219 -2.050781 9.199219 -5.449219 L 9.199219 -17.5 L 7.699219 -17.5 L 7.699219 -5.523438 C 7.699219 -2.925781 6.550781 -1.449219 3.699219 -1.449219 L 1.175781 -1.449219 Z M 1.175781 0 "/></g></g></g><g fill="#ffffff" fill-opacity="1"><g transform="translate(61.864006, 195.626075)"><g><path d="M 10.625 0.324219 C 15.972656 0.324219 19.648438 -3.398438 19.648438 -8.75 C 19.648438 -14.097656 15.972656 -17.824219 10.625 -17.824219 C 5.300781 -17.824219 1.601562 -14.097656 1.601562 -8.75 C 1.601562 -3.398438 5.300781 0.324219 10.625 0.324219 Z M 3.148438 -8.75 C 3.148438 -13.25 6.199219 -16.296875 10.625 -16.296875 C 15.074219 -16.296875 18.125 -13.25 18.125 -8.75 C 18.125 -4.273438 15.074219 -1.199219 10.625 -1.199219 C 6.199219 -1.199219 3.148438 -4.273438 3.148438 -8.75 Z M 3.148438 -8.75 "/></g></g></g><g fill="#ffffff" fill-opacity="1"><g transform="translate(95.610436, 195.626075)"><g><path d="M 2.824219 0 L 4.324219 0 L 4.324219 -14.898438 L 14.972656 0 L 16.398438 0 L 16.398438 -17.5 L 14.898438 -17.5 L 14.898438 -2.625 L 4.25 -17.5 L 2.824219 -17.5 Z M 2.824219 0 "/></g></g></g><g fill="#ffffff" fill-opacity="1"><g transform="translate(127.332191, 195.626075)"><g/></g></g><g fill="#ffffff" fill-opacity="1"><g transform="translate(146.530924, 195.626075)"><g><path d="M 2.824219 0 L 4.347656 0 L 4.347656 -14.699219 L 10.898438 -4.875 L 12.148438 -4.875 L 18.699219 -14.699219 L 18.699219 0 L 20.199219 0 L 20.199219 -17.5 L 18.796875 -17.5 L 11.523438 -6.550781 L 4.25 -17.5 L 2.824219 -17.5 Z M 2.824219 0 "/></g></g></g><g fill="#ffffff" fill-opacity="1"><g transform="translate(182.052078, 195.626075)"><g><path d="M 2.824219 0 L 4.347656 0 L 4.347656 -17.5 L 2.824219 -17.5 Z M 2.824219 0 "/></g></g></g><g fill="#ffffff" fill-opacity="1"><g transform="translate(201.725741, 195.626075)"><g><path d="M 10.472656 0.324219 C 14.597656 0.324219 17.972656 -2.101562 19.046875 -5.875 L 17.449219 -5.875 C 16.472656 -2.976562 13.773438 -1.199219 10.5 -1.199219 C 6.222656 -1.199219 3.148438 -4.273438 3.148438 -8.75 C 3.148438 -13.222656 6.222656 -16.296875 10.5 -16.296875 C 13.699219 -16.296875 16.296875 -14.597656 17.296875 -11.824219 L 18.898438 -11.824219 C 17.75 -15.5 14.472656 -17.824219 10.472656 -17.824219 C 5.324219 -17.824219 1.601562 -14.074219 1.601562 -8.75 C 1.601562 -3.425781 5.324219 0.324219 10.472656 0.324219 Z M 10.472656 0.324219 "/></g></g></g><g fill="#ffffff" fill-opacity="1"><g transform="translate(234.772282, 195.626075)"><g><path d="M 14.597656 0 L 16.125 0 L 16.125 -17.5 L 14.597656 -17.5 L 14.597656 -9.648438 L 4.347656 -9.648438 L 4.347656 -17.5 L 2.824219 -17.5 L 2.824219 0 L 4.347656 0 L 4.347656 -8.199219 L 14.597656 -8.199219 Z M 14.597656 0 "/></g></g></g><g fill="#ffffff" fill-opacity="1"><g transform="translate(266.219087, 195.626075)"><g><path d="M 0.550781 0 L 2.175781 0 L 3.972656 -4.398438 L 13.074219 -4.398438 L 14.898438 0 L 16.5 0 L 9.25 -17.5 L 7.800781 -17.5 Z M 4.574219 -5.800781 L 8.523438 -15.421875 L 12.5 -5.800781 Z M 4.574219 -5.800781 "/></g></g></g><g fill="#ffffff" fill-opacity="1"><g transform="translate(295.791191, 195.626075)"><g><path d="M 2.824219 0 L 13.398438 0 L 13.398438 -1.425781 L 4.347656 -1.425781 L 4.347656 -8.222656 L 12.472656 -8.222656 L 12.472656 -9.625 L 4.347656 -9.625 L 4.347656 -16.074219 L 13.125 -16.074219 L 13.125 -17.5 L 2.824219 -17.5 Z M 2.824219 0 "/></g></g></g><g fill="#ffffff" fill-opacity="1"><g transform="translate(323.513586, 195.626075)"><g><path d="M 2.824219 0 L 13.222656 0 L 13.222656 -1.449219 L 4.347656 -1.449219 L 4.347656 -17.5 L 2.824219 -17.5 Z M 2.824219 0 "/></g></g></g></svg>