<svg xmlns="http://www.w3.org/2000/svg" xmlns:xlink="http://www.w3.org/1999/xlink" width="1080" zoomAndPan="magnify" viewBox="0 0 810 809.999993" height="1080" preserveAspectRatio="xMidYMid meet" version="1.0"><defs><clipPath id="dae0a3d6f9"><path d="M 52 83 L 792.863281 83 L 792.863281 810 L 52 810 Z M 52 83 " clip-rule="nonzero"/></clipPath><clipPath id="fef5db935a"><path d="M 52 310 L 792.863281 310 L 792.863281 810 L 52 810 Z M 52 310 " clip-rule="nonzero"/></clipPath><clipPath id="ad4274b1f8"><path d="M 207 768 L 792.863281 768 L 792.863281 810 L 207 810 Z M 207 768 " clip-rule="nonzero"/></clipPath></defs><g clip-path="url(#dae0a3d6f9)"><path fill="#a8d0e6" d="M 302.503906 346.601562 C 298.402344 344.519531 294.382812 342.179688 290.445312 339.261719 C 262.367188 318.453125 246.074219 283.789062 251.882812 249.035156 C 254.308594 234.515625 263.207031 221.101562 264.121094 206.558594 C 264.804688 195.675781 262.117188 184.988281 262.175781 174.144531 C 262.28125 155.070312 269.667969 134.496094 281.265625 119.519531 C 300.144531 95.140625 328.179688 80.980469 359.566406 84.484375 C 369.695312 85.617188 379.867188 88.539062 388.863281 93.386719 C 389.800781 93.890625 398.84375 98.089844 397.804688 100.558594 L 402.34375 101.8125 C 416.53125 98.945312 432.542969 100.222656 446.632812 102.925781 C 452.867188 104.121094 459.890625 105.394531 465.113281 109.183594 C 491.128906 128.03125 490.089844 166.660156 483.378906 194.160156 C 482.175781 199.09375 480.402344 203.925781 478.621094 208.730469 C 479.652344 210.949219 480.34375 213.058594 480.472656 213.976562 C 480.882812 216.824219 481.324219 219.765625 481.328125 222.648438 C 481.328125 226.414062 481.144531 230.289062 480.746094 234.191406 C 486.066406 233.761719 491.292969 234.871094 494.527344 237.921875 C 504.730469 247.546875 508.527344 263.515625 504.117188 276.769531 C 499.078125 291.898438 484.394531 301.726562 469.199219 303.1875 C 464.507812 303.640625 457.777344 302.511719 453.273438 299.25 C 451.929688 303.660156 450.554688 308.0625 449.261719 312.496094 C 449.160156 312.84375 449.03125 313.601562 448.886719 314.507812 L 450.582031 315.578125 L 451.699219 316.386719 L 453.253906 317.667969 L 454.246094 318.585938 L 455.082031 319.433594 L 455.738281 320.144531 L 456.515625 321.050781 L 457.121094 321.800781 L 457.847656 322.753906 L 458.410156 323.542969 L 458.953125 324.339844 L 460.105469 326.179688 L 461.3125 328.320312 L 462.214844 330.070312 L 463.203125 332.144531 C 463.898438 333.664062 464.550781 335.214844 465.183594 336.78125 C 467.289062 339.882812 469.773438 342.902344 472.21875 344.972656 C 478.417969 350.242188 486.742188 353.042969 494.917969 355.742188 C 499.832031 357.367188 504.695312 358.953125 509.007812 361.015625 C 523.171875 367.792969 537.503906 374.128906 551.75 380.695312 C 556.929688 383.082031 562.074219 385.636719 567.316406 387.875 C 568.992188 388.589844 570.691406 389.285156 572.449219 389.777344 C 573.042969 389.941406 574.898438 390.589844 574.871094 390.5625 C 589.542969 395.476562 600.714844 412.320312 606.753906 425.414062 C 621.800781 458.046875 629.71875 494.707031 641.921875 528.5625 C 650.648438 552.78125 656.777344 578.183594 667.046875 601.828125 C 680.574219 632.972656 696.175781 662.699219 712.003906 692.75 C 718.757812 705.570312 723.753906 719.136719 730.523438 731.949219 C 732.65625 735.988281 736.273438 743.449219 732.894531 747.9375 C 732.738281 748.148438 732.546875 748.34375 732.320312 748.527344 C 734.402344 751.976562 738.792969 753.546875 740.058594 757.597656 C 741.058594 760.804688 740.605469 764.875 740.207031 768.125 C 739.226562 776.144531 737.90625 786.125 732.773438 792.875 L 792.695312 820.007812 L 560.558594 825.449219 C 560.558594 825.449219 556.785156 831.875 541.296875 831.929688 L 540.929688 831.929688 C 526.117188 831.882812 518.824219 829.351562 517.972656 829.039062 L 517.886719 829.003906 L 219.582031 842.230469 L 207.757812 820.800781 L 192.3125 821.332031 L 180.800781 803.132812 C 176.238281 803.316406 171.695312 803.695312 167.101562 803.683594 C 148.898438 803.632812 131.347656 797.539062 119.542969 783.222656 C 118.914062 782.453125 118.375 781.644531 117.910156 780.808594 C 116.753906 780.722656 115.59375 780.617188 114.429688 780.511719 C 112.597656 780.34375 108.347656 781.929688 108.917969 780.175781 C 98.773438 779.925781 88.558594 774.714844 80.578125 768.957031 C 62.464844 755.894531 49.753906 739.496094 52.34375 716.207031 C 53.644531 704.5 59.523438 692.863281 64.15625 682.136719 C 71.226562 665.800781 78.4375 649.371094 85.058594 632.835938 C 92.40625 614.476562 96.167969 594.972656 102.75 576.324219 C 114.015625 544.414062 126.703125 513.558594 135.414062 480.75 C 139.664062 464.746094 146.796875 450.234375 152.234375 434.691406 C 157.371094 420.015625 161.558594 402.496094 174.984375 392.785156 C 180.6875 388.660156 191.390625 385.628906 198.539062 385.359375 C 202.332031 385.21875 206.105469 386.53125 209.894531 385.464844 C 223.40625 381.664062 235.664062 373.648438 249.222656 369.558594 C 257.460938 367.074219 265.644531 366.347656 273.351562 364.003906 L 274.890625 363.507812 C 276.652344 362.914062 278.386719 362.226562 280.085938 361.394531 C 288.117188 357.472656 295.210938 351.859375 302.503906 346.601562 Z M 702.234375 775.550781 L 702.152344 775.886719 Z M 703.121094 771.863281 L 703.046875 772.179688 Z M 552.910156 605.273438 L 552.875 605.269531 L 552.542969 607.933594 L 552.183594 610.539062 L 551.882812 612.574219 L 551.570312 614.546875 L 551.136719 617.058594 L 550.671875 619.527344 L 550.164062 621.996094 L 549.445312 625.136719 L 548.851562 627.496094 L 548.222656 629.808594 L 547.96875 630.6875 C 546.589844 635.417969 544.890625 640.167969 542.753906 645.164062 C 539.972656 651.664062 532.007812 661.566406 531.617188 668.433594 C 531.007812 679.171875 539.070312 703.191406 542.046875 714.480469 C 545.507812 727.613281 548.539062 740.847656 551.890625 754.011719 C 552.414062 756.074219 554.300781 765.570312 555.21875 769.496094 L 454.304688 770.40625 L 616.957031 768.9375 C 618.820312 767.855469 620.621094 766.828125 622.117188 765.777344 C 623.316406 764.929688 624.4375 764.03125 625.492188 763.09375 C 592.429688 734.722656 582.988281 704.257812 570.902344 659.703125 C 567.085938 645.644531 563.226562 632.164062 557.820312 618.617188 C 556.515625 615.347656 555.066406 612.140625 553.652344 608.917969 C 553.3125 608.148438 553.644531 606.820312 553.511719 605.996094 C 553.488281 605.875 553.460938 605.761719 553.417969 605.664062 L 553.359375 605.558594 L 553.277344 605.457031 L 553.1875 605.382812 L 553.105469 605.335938 L 552.984375 605.289062 Z M 704.015625 767.976562 L 703.710938 769.316406 C 703.8125 768.871094 703.914062 768.425781 704.015625 767.976562 Z M 698.046875 764.746094 L 697.410156 766.234375 L 698.097656 764.628906 Z M 698.960938 762.601562 L 698.714844 763.179688 L 699.070312 762.34375 Z M 699.210938 762.011719 L 699.875 760.472656 C 699.652344 760.984375 699.433594 761.496094 699.210938 762.011719 Z M 196.46875 668.628906 C 192.203125 678.144531 188.128906 687.75 184.894531 697.453125 C 184.136719 699.726562 184.132812 702.226562 184.269531 704.769531 C 184.480469 704.789062 184.664062 704.804688 184.820312 704.8125 C 185.523438 704.839844 187.574219 702.964844 188.285156 702.632812 C 191.195312 701.269531 196.617188 698.445312 200.113281 698.578125 C 207.289062 698.84375 215.101562 701.332031 222.511719 703.585938 L 224 704.035156 Z M 220.035156 619.261719 C 219.582031 618.347656 219.082031 617.859375 218.878906 617.675781 L 218.898438 617.644531 C 218.742188 617.566406 218.757812 617.566406 218.878906 617.675781 C 213.71875 625.429688 211.375 635.472656 207.640625 643.957031 C 205.472656 648.890625 203.199219 653.851562 200.917969 658.832031 L 235.957031 703.285156 C 233.023438 688.414062 229.664062 673.53125 226.605469 658.902344 C 224.597656 649.285156 223.136719 639.644531 222.007812 629.890625 C 221.820312 628.25 221.625 626.601562 221.378906 624.964844 L 220.972656 622.566406 L 220.578125 620.730469 L 220.164062 619.53125 Z M 315.488281 300.570312 C 315.304688 302.796875 315.210938 305.023438 315.195312 307.230469 C 315.132812 316.90625 317.546875 326.636719 321.019531 335.722656 C 321.628906 335.476562 322.246094 335.242188 322.867188 335.019531 C 326.1875 333.828125 329.738281 332.816406 333.285156 332.390625 C 328.40625 324.339844 323.003906 316.519531 318.933594 308.195312 C 317.707031 305.695312 316.578125 303.140625 315.488281 300.570312 Z M 471.203125 266.164062 L 471.046875 266.433594 Z M 474.886719 258.632812 L 474.796875 258.84375 Z M 478.386719 247.859375 L 478.375 247.910156 Z M 476.480469 204.910156 L 476.492188 204.925781 Z M 470.152344 202.832031 L 470.140625 202.84375 Z M 473.605469 202.039062 L 473.628906 202.054688 Z M 471.566406 201.816406 L 471.554688 201.820312 Z M 472.929688 201.777344 L 472.949219 201.78125 Z M 472.109375 201.703125 L 472.089844 201.707031 Z M 472.476562 201.703125 L 472.492188 201.703125 Z M 329.046875 194.203125 L 329.039062 194.230469 L 329.054688 194.171875 Z M 329.128906 193.859375 L 329.121094 193.890625 Z M 329.972656 190.828125 L 329.96875 190.839844 Z M 330.417969 189.46875 L 330.410156 189.503906 Z M 333.921875 181.414062 L 333.90625 181.445312 L 333.9375 181.382812 Z M 334.421875 180.492188 L 334.398438 180.535156 Z M 334.9375 179.589844 L 334.917969 179.621094 Z M 335.09375 179.320312 L 335.074219 179.355469 L 335.113281 179.289062 Z M 335.441406 178.742188 L 335.421875 178.769531 L 335.464844 178.703125 Z M 335.792969 178.171875 L 335.78125 178.191406 L 335.816406 178.132812 Z M 335.984375 177.871094 L 335.945312 177.929688 Z M 336.328125 177.335938 L 336.304688 177.371094 L 336.347656 177.308594 Z M 336.691406 176.789062 L 336.667969 176.820312 L 336.714844 176.753906 Z M 337.058594 176.253906 L 337.042969 176.277344 L 337.085938 176.214844 Z M 337.253906 175.976562 L 337.21875 176.023438 Z M 337.617188 175.46875 L 337.589844 175.507812 L 337.632812 175.449219 Z M 337.992188 174.960938 L 337.964844 174.996094 L 338.011719 174.933594 Z M 337.992188 174.960938 " fill-opacity="1" fill-rule="evenodd"/></g><g clip-path="url(#fef5db935a)"><path fill="#a8d0e6" d="M 155.746094 763.515625 L 192.3125 821.328125 L 207.761719 820.796875 L 219.585938 842.226562 L 517.890625 829 C 517.890625 829 525.132812 831.875 540.929688 831.925781 C 556.726562 831.976562 560.5625 825.445312 560.5625 825.445312 L 792.699219 820.003906 L 678.667969 768.375 L 454.304688 770.40625 L 416.015625 770.375 L 454.304688 770.40625 L 555.21875 769.492188 C 554.300781 765.566406 552.414062 756.070312 551.890625 754.011719 C 548.539062 740.847656 545.507812 727.613281 542.046875 714.476562 C 539.070312 703.191406 531.007812 679.167969 531.617188 668.429688 C 532.007812 661.566406 539.972656 651.660156 542.753906 645.164062 C 548.570312 631.570312 551.117188 619.839844 552.875 605.269531 C 554.109375 605.417969 553.152344 607.777344 553.652344 608.917969 C 555.066406 612.140625 556.515625 615.347656 557.820312 618.617188 C 563.226562 632.160156 567.085938 645.644531 570.898438 659.703125 C 583.800781 707.257812 593.6875 738.757812 632.496094 768.792969 L 654.464844 768.59375 C 657.855469 768.246094 660.550781 767.9375 661.339844 767.785156 C 678.578125 764.414062 693.882812 755.957031 710.53125 751.878906 C 714.890625 750.8125 729.953125 751.84375 732.894531 747.933594 C 736.273438 743.445312 732.65625 735.984375 730.523438 731.945312 C 723.753906 719.136719 718.753906 705.566406 712.003906 692.746094 C 696.175781 662.695312 680.574219 632.96875 667.046875 601.824219 C 656.777344 578.179688 650.648438 552.773438 641.921875 528.558594 C 629.71875 494.699219 621.800781 458.042969 606.753906 425.410156 C 600.714844 412.3125 589.542969 395.472656 574.871094 390.558594 C 574.898438 390.585938 573.042969 389.9375 572.449219 389.773438 C 570.691406 389.28125 568.992188 388.585938 567.316406 387.871094 C 562.074219 385.632812 556.929688 383.078125 551.75 380.691406 C 537.503906 374.125 523.171875 367.789062 509.007812 361.011719 C 497.515625 355.515625 482.144531 353.402344 472.21875 344.972656 C 469.773438 342.898438 467.289062 339.878906 465.183594 336.777344 C 461.140625 326.738281 456.09375 317.324219 445.867188 312.996094 C 441.328125 311.078125 436.210938 310.707031 431.363281 310.226562 C 426.882812 309.789062 422.511719 310.667969 418.246094 311.980469 L 338.949219 319.605469 C 338.859375 319.710938 338.789062 325.238281 338.636719 326.179688 C 338.316406 328.15625 337.96875 330.125 337.605469 332.09375 C 336.675781 332.074219 335.699219 332.195312 335.414062 332.207031 C 331.171875 332.417969 326.851562 333.59375 322.867188 335.019531 C 306.878906 340.75 295.136719 354.046875 280.085938 361.390625 C 270.511719 366.066406 259.914062 366.328125 249.226562 369.554688 C 235.664062 373.644531 223.40625 381.660156 209.898438 385.460938 C 206.105469 386.527344 202.332031 385.214844 198.539062 385.355469 C 191.390625 385.625 180.6875 388.65625 174.984375 392.785156 C 161.558594 402.492188 157.371094 420.011719 152.234375 434.6875 C 146.796875 450.230469 139.664062 464.746094 135.417969 480.746094 C 126.703125 513.554688 114.015625 544.410156 102.75 576.320312 C 96.167969 594.96875 92.40625 614.472656 85.058594 632.835938 C 78.4375 649.367188 71.226562 665.796875 64.160156 682.132812 C 59.523438 692.859375 53.644531 704.496094 52.34375 716.203125 C 49.753906 739.492188 62.464844 755.890625 80.578125 768.953125 C 88.558594 774.710938 98.773438 779.925781 108.917969 780.171875 C 108.347656 781.925781 112.597656 780.339844 114.429688 780.507812 C 120.507812 781.058594 126.507812 781.578125 132.347656 779.480469 C 140.289062 776.617188 148.484375 770.472656 155.746094 763.515625 Z M 245.34375 746.386719 C 244.574219 741.027344 241.195312 733.851562 240.523438 729.332031 C 237.0625 705.925781 231.453125 682.097656 226.605469 658.902344 C 224.597656 649.285156 223.136719 639.644531 222.007812 629.890625 C 221.664062 626.917969 221.308594 623.917969 220.644531 620.996094 C 220.171875 618.921875 219.183594 617.949219 218.878906 617.675781 L 218.898438 617.644531 C 218.742188 617.566406 218.757812 617.566406 218.878906 617.675781 C 213.71875 625.429688 211.375 635.472656 207.640625 643.957031 C 199.933594 661.472656 190.945312 679.292969 184.894531 697.453125 C 183.207031 702.507812 185.246094 708.675781 184.257812 713.9375 C 182.207031 724.886719 178.324219 735.855469 171.828125 745.074219 Z M 245.34375 746.386719 " fill-opacity="1" fill-rule="evenodd"/></g><g clip-path="url(#ad4274b1f8)"><path fill="#24305e" d="M 416.015625 770.378906 L 483.324219 822.386719 L 239.339844 831.246094 L 228.558594 820.085938 L 448.503906 812.550781 L 402.339844 770.367188 L 448.503906 812.550781 L 207.761719 820.796875 L 219.585938 842.226562 L 517.890625 829 C 517.890625 829 525.132812 831.875 540.929688 831.925781 C 556.726562 831.976562 560.5625 825.445312 560.5625 825.445312 L 792.699219 820.003906 L 678.667969 768.378906 L 454.304688 770.40625 Z M 416.015625 770.378906 " fill-opacity="0.54" fill-rule="evenodd"/></g><path fill="#ffffff" d="M 143.761719 744.578125 L 192.3125 821.328125 L 448.503906 812.550781 L 378.691406 748.757812 Z M 143.761719 744.578125 " fill-opacity="0.7" fill-rule="evenodd"/><path fill="#ffffff" d="M 402.335938 770.378906 L 448.503906 812.550781 L 228.558594 820.085938 L 239.339844 831.246094 L 483.324219 822.386719 L 416.03125 770.375 Z M 402.335938 770.378906 " fill-opacity="0.5" fill-rule="evenodd"/><path fill="#ffffff" d="M 362.761719 748.472656 L 378.691406 748.757812 L 402.339844 770.367188 L 399.925781 768.160156 L 402.339844 770.367188 L 454.304688 770.40625 L 480.542969 770.167969 C 478.558594 759.148438 476.390625 748.144531 474.933594 736.984375 C 468.3125 686.226562 476.539062 633.058594 476.539062 582.003906 C 476.289062 582.6875 476.511719 580.542969 476.511719 579.8125 C 476.511719 578.144531 476.605469 576.445312 476.4375 574.785156 C 476 570.402344 475.226562 566.054688 474.765625 561.667969 C 473.367188 548.402344 473.539062 535.019531 472.140625 521.738281 C 469.257812 494.355469 470.910156 466.832031 465.726562 439.621094 C 464.316406 432.210938 464.574219 423.410156 462.230469 416.378906 C 461.664062 414.675781 458.113281 407.925781 459.023438 406.105469 C 459.765625 404.617188 464.921875 402.660156 466.382812 401.878906 C 471.960938 398.90625 477.355469 395.152344 482.777344 391.894531 C 483.675781 391.355469 486.683594 388.496094 487.691406 388.269531 C 487.398438 387.609375 486.710938 385.722656 486.308594 384.988281 C 485.03125 382.664062 484.011719 380.273438 482.957031 377.847656 C 479.730469 370.429688 476.519531 363.082031 472.898438 355.84375 C 465.507812 341.058594 462.714844 320.125 445.867188 313 C 441.328125 311.078125 436.210938 310.707031 431.363281 310.230469 C 426.882812 309.789062 422.511719 310.667969 418.246094 311.980469 L 338.949219 319.605469 C 338.859375 319.710938 338.789062 325.238281 338.636719 326.179688 C 337.578125 332.738281 336.171875 339.222656 335.109375 345.78125 C 331.273438 369.441406 329.777344 393.851562 329.777344 417.789062 C 332.617188 416.523438 338.421875 418.722656 341.121094 420.03125 C 340.9375 420.71875 341.015625 423.550781 341.144531 424.691406 C 341.496094 427.890625 341.277344 431.097656 341.433594 434.308594 C 341.90625 443.964844 343.027344 453.4375 344.277344 463.015625 C 347.929688 491.027344 350.066406 519.21875 352.875 547.320312 C 356.371094 582.277344 356.902344 617.441406 357.757812 652.535156 C 358.269531 673.570312 361.1875 694.515625 361.910156 715.558594 C 362.292969 726.542969 362.453125 737.507812 362.761719 748.472656 Z M 341.121094 420.03125 C 341.167969 420.050781 341.210938 420.074219 341.253906 420.09375 C 341.296875 420.113281 341.339844 420.136719 341.382812 420.15625 C 341.265625 419.808594 341.179688 419.808594 341.121094 420.03125 Z M 487.691406 388.269531 C 487.710938 388.265625 487.734375 388.261719 487.753906 388.257812 C 487.769531 388.253906 487.789062 388.253906 487.808594 388.253906 C 487.875 388.605469 487.816406 388.550781 487.691406 388.269531 Z M 487.691406 388.269531 " fill-opacity="0.8" fill-rule="evenodd"/><path fill="#ffbd59" d="M 689.117188 716.097656 C 689.601562 716.261719 688.140625 715.8125 687.640625 715.703125 C 686.785156 715.519531 685.902344 715.597656 685.042969 715.699219 C 682.09375 716.0625 679.382812 716.664062 676.554688 717.554688 C 671.949219 719 669.648438 721.722656 665.84375 724.097656 C 662.574219 726.140625 659.074219 727.179688 655.691406 728.949219 C 650.191406 731.824219 651.503906 738.222656 647.96875 742.191406 C 646.015625 744.382812 642.023438 745.574219 639.722656 747.757812 C 633.511719 753.640625 629.355469 760.691406 622.117188 765.773438 C 617.113281 769.285156 608.726562 772.554688 605.820312 778.398438 C 598.65625 792.816406 619.429688 790.136719 627.074219 788.835938 C 628.691406 788.5625 630.515625 787.835938 631.984375 787.117188 C 632.242188 786.992188 634.570312 785.597656 634.6875 785.800781 C 634.945312 786.246094 633.941406 788.476562 633.832031 788.964844 C 633.367188 791.066406 633.234375 793.761719 633.714844 795.875 C 635.617188 804.277344 648.410156 806.421875 655.070312 802.59375 C 655.535156 802.328125 655.628906 803.519531 656.035156 803.863281 C 656.820312 804.53125 657.640625 805.175781 658.535156 805.6875 C 661.113281 807.167969 664.496094 808.945312 667.53125 808.816406 C 676.832031 808.425781 679.582031 801.875 683.871094 794.554688 C 690.105469 783.925781 695.015625 771.78125 699.875 760.472656 C 701.03125 757.777344 702.46875 755.160156 704.195312 752.800781 C 704.460938 752.4375 705.371094 750.269531 705.859375 750.703125 C 707.96875 752.578125 705.875 759.710938 705.390625 761.863281 C 703.167969 771.796875 701.023438 781.648438 697.6875 791.296875 C 696.425781 794.949219 691.921875 802.636719 697.476562 805.023438 C 703.648438 807.675781 706.753906 800.40625 712.347656 801 C 718.148438 801.613281 724.515625 800.121094 729.195312 796.507812 C 737.363281 790.210938 739.03125 777.75 740.210938 768.121094 C 740.609375 764.871094 741.0625 760.800781 740.058594 757.59375 C 738.742188 753.386719 734.046875 751.855469 732.085938 748.097656 C 729.046875 742.28125 729.398438 735.484375 726.46875 729.703125 C 724.214844 725.253906 719.949219 724.480469 715.761719 722.5625 C 708.621094 719.296875 705.8125 717.144531 697.039062 717.554688 Z M 175.289062 703.675781 C 176.234375 703.214844 182.894531 704.742188 184.820312 704.8125 C 185.523438 704.839844 187.574219 702.964844 188.285156 702.632812 C 191.199219 701.269531 196.621094 698.445312 200.113281 698.578125 C 209.726562 698.933594 220.492188 703.277344 229.886719 705.710938 C 232.285156 706.332031 235.796875 708.160156 238.128906 708.246094 C 245.511719 708.519531 253.375 708.492188 259.871094 712.726562 C 266.59375 717.109375 266.800781 726.25 270.433594 732.679688 C 272.570312 736.453125 276.527344 739.980469 277.550781 744.371094 C 278.6875 749.246094 272.347656 751.6875 268.863281 749.414062 C 267.578125 752.277344 268.4375 755.480469 267.898438 758.589844 C 267.558594 760.558594 265.878906 763.414062 266.203125 765.417969 C 266.582031 767.753906 267.4375 769.785156 266.859375 772.210938 C 265.140625 779.378906 258.363281 779.136719 254.457031 782.761719 C 254.347656 782.863281 254.980469 785.410156 254.917969 785.832031 C 254.515625 788.535156 253.800781 791.082031 252.203125 793.363281 C 249.296875 797.511719 245.875 796.464844 241.851562 797.640625 C 240.964844 797.902344 240.734375 800.15625 240.121094 800.835938 C 237.34375 803.929688 231.804688 807.496094 227.535156 806.472656 C 226.71875 807.152344 219.421875 806.375 218.171875 806.328125 C 208.84375 805.980469 199.671875 803.980469 190.394531 803.230469 C 182.554688 802.59375 174.90625 803.703125 167.105469 803.683594 C 148.898438 803.628906 131.351562 797.535156 119.546875 783.21875 C 115.183594 777.925781 115.40625 770.722656 112.503906 765.171875 C 110.472656 761.289062 106.570312 758.71875 104.171875 755.085938 C 106.625 746.492188 113.3125 738.921875 119.769531 732.929688 C 131.925781 721.648438 145.761719 710.230469 161.667969 704.867188 Z M 386.882812 179.683594 C 387.464844 179.5 385.960938 178.847656 385.65625 178.320312 C 384.882812 176.984375 384.039062 175.609375 382.996094 174.464844 C 380.378906 171.59375 376.617188 167.671875 373.101562 165.984375 C 361.277344 160.308594 346.050781 164.410156 338.179688 174.710938 C 332.5625 182.066406 327.917969 193.402344 328 202.773438 C 328.113281 216.109375 333.105469 227.8125 329.925781 241.363281 C 326.226562 257.152344 311.714844 268.453125 308.691406 284.289062 C 308.5625 284.132812 309.503906 286.101562 309.625 286.347656 C 310.480469 288.066406 311.070312 289.914062 311.804688 291.683594 C 314.101562 297.207031 316.300781 302.820312 318.933594 308.195312 C 326.558594 323.792969 338.863281 337.617188 343.632812 354.527344 C 343.691406 354.550781 343.761719 356.34375 343.820312 356.546875 C 344.550781 359.144531 345.359375 361.703125 346.179688 364.277344 C 349.308594 374.078125 352.371094 383.984375 355.148438 393.832031 C 356.605469 393.703125 356.476562 396.453125 357.300781 397.664062 C 360.304688 402.085938 362.335938 407.023438 365.34375 411.449219 C 375.066406 425.761719 383.789062 440.730469 393.519531 455.050781 C 395.804688 458.414062 398.5 461.425781 400.648438 464.871094 C 401.070312 465.554688 402.28125 468.480469 403.21875 468.660156 C 403.183594 468.644531 404.132812 466.085938 404.21875 465.882812 C 405.644531 462.445312 406.972656 458.976562 408.496094 455.582031 C 412.1875 447.355469 414.816406 438.585938 418.703125 430.476562 C 429.566406 407.8125 436.261719 383.226562 446.773438 360.527344 C 447.253906 361.699219 446.949219 358 446.949219 356.734375 C 446.941406 353.636719 446.914062 350.542969 447 347.449219 C 447.242188 338.699219 448.941406 328.652344 447.773438 319.949219 C 448.238281 319.550781 448.917969 313.667969 449.257812 312.496094 C 451.433594 305.042969 453.847656 297.675781 455.925781 290.207031 C 457 286.359375 458.015625 282.480469 459.351562 278.710938 C 459.546875 278.164062 460.085938 275.445312 460.527344 275.148438 C 464.398438 272.515625 468.539062 270.714844 471.046875 266.433594 C 478.527344 253.65625 481.335938 237.316406 481.328125 222.648438 C 481.324219 219.765625 480.878906 216.824219 480.472656 213.976562 C 480.066406 211.132812 474.269531 196.828125 469.703125 203.40625 C 465.539062 209.398438 463.660156 222.175781 464.570312 228.992188 C 463.910156 229.472656 461.851562 226.390625 461.671875 226.105469 C 459.738281 223.089844 457.769531 219.902344 456.726562 216.457031 C 456.605469 216.058594 456.050781 213.128906 455.652344 213.054688 C 455.089844 212.945312 454.542969 213.445312 453.96875 213.402344 C 452.183594 213.261719 450.285156 213.023438 448.597656 212.421875 C 443.414062 210.582031 438.8125 207.726562 435.015625 203.679688 C 428.945312 197.207031 425.203125 188.5 421.207031 180.679688 C 419.835938 177.996094 418.820312 174.605469 416.804688 172.3125 C 412.984375 167.96875 405.296875 165.167969 400.167969 168.988281 C 397.527344 170.953125 395.515625 175.097656 394.03125 177.949219 Z M 386.882812 179.683594 " fill-opacity="1" fill-rule="evenodd"/><path fill="#24305e" d="M 657.179688 804.785156 C 657.613281 805.113281 658.066406 805.417969 658.535156 805.6875 L 658.992188 805.949219 C 657.578125 798.445312 660.335938 790.851562 662.667969 783.816406 C 666.671875 771.761719 670.9375 759.683594 674.652344 747.558594 C 675.632812 744.351562 677.292969 741.15625 678.894531 738.222656 C 679.011719 738.007812 679.210938 737.832031 679.417969 737.660156 C 679.71875 737.410156 680.042969 737.171875 680.316406 736.917969 C 680.847656 736.421875 681.183594 735.855469 681.152344 735.160156 C 681.132812 734.714844 680.753906 734.371094 680.308594 734.386719 C 679.863281 734.40625 679.519531 734.785156 679.539062 735.230469 C 679.542969 735.359375 679.46875 735.457031 679.386719 735.558594 C 679.269531 735.695312 679.125 735.820312 678.976562 735.941406 C 678.417969 736.402344 677.796875 736.867188 677.476562 737.449219 C 675.824219 740.476562 674.121094 743.777344 673.105469 747.085938 C 669.394531 759.199219 665.132812 771.265625 661.136719 783.304688 C 658.867188 790.140625 656.292969 797.488281 657.179688 804.785156 Z M 402.113281 798.777344 C 364.777344 799.421875 327.445312 799.34375 290.097656 800.847656 C 277.703125 801.347656 263.894531 798.984375 251.6875 801.679688 C 251.253906 801.777344 250.976562 802.207031 251.074219 802.644531 C 251.167969 803.078125 251.601562 803.351562 252.035156 803.257812 C 264.152344 800.578125 277.859375 802.957031 290.164062 802.460938 C 327.5 800.957031 364.820312 801.039062 402.140625 800.394531 C 402.589844 800.386719 402.941406 800.019531 402.933594 799.570312 C 402.925781 799.128906 402.558594 798.769531 402.113281 798.777344 Z M 710.441406 801.09375 C 711.019531 800.972656 711.621094 800.933594 712.25 800.988281 C 716.664062 791.089844 719.535156 779.9375 722.933594 770.199219 C 724.152344 766.707031 725.34375 763.128906 726.351562 759.566406 C 726.503906 759.027344 726.558594 757.832031 726.785156 756.835938 C 726.84375 756.578125 726.917969 756.332031 727.015625 756.128906 C 727.058594 756.039062 727.097656 755.949219 727.167969 755.910156 C 727.550781 755.683594 727.679688 755.1875 727.453125 754.804688 C 727.230469 754.417969 726.734375 754.292969 726.347656 754.515625 C 725.917969 754.769531 725.574219 755.273438 725.359375 755.9375 C 725.015625 756.984375 724.972656 758.5 724.796875 759.125 C 723.796875 762.65625 722.617188 766.207031 721.40625 769.667969 C 717.9375 779.613281 715.039062 791.058594 710.441406 801.09375 Z M 241.226562 798.269531 C 236.101562 796.652344 230.964844 794.839844 225.734375 794.039062 C 221.765625 793.425781 217.324219 794.355469 213.488281 793.417969 C 206.957031 791.824219 198.988281 788.855469 193.210938 787.652344 C 192.773438 787.558594 192.496094 787.132812 192.585938 786.695312 C 192.675781 786.257812 193.105469 785.980469 193.539062 786.070312 C 199.332031 787.277344 207.324219 790.253906 213.871094 791.851562 C 217.664062 792.777344 222.054688 791.835938 225.980469 792.441406 C 231.875 793.347656 237.652344 795.519531 243.429688 797.269531 C 242.914062 797.367188 242.386719 797.484375 241.851562 797.640625 C 241.597656 797.714844 241.394531 797.953125 241.226562 798.269531 Z M 648.351562 741.726562 C 648.234375 741.882812 648.101562 742.042969 647.96875 742.191406 C 646.015625 744.386719 642.023438 745.578125 639.722656 747.757812 C 634.636719 752.570312 630.929688 758.171875 625.78125 762.832031 C 626.050781 761.382812 626.394531 760.097656 626.515625 759.507812 C 628.445312 750.089844 630.203125 741.078125 635.886719 733.035156 C 640.503906 726.5 646.382812 722.46875 653.234375 718.636719 C 676.8125 705.449219 716.550781 703.535156 729.710938 732.59375 C 731.589844 736.746094 732.160156 742.253906 732.222656 746.773438 C 732.230469 747.296875 732.234375 747.828125 732.226562 748.359375 C 732.179688 748.273438 732.132812 748.1875 732.085938 748.097656 C 729.046875 742.28125 729.398438 735.484375 726.46875 729.703125 C 724.214844 725.25 719.949219 724.480469 715.761719 722.5625 C 708.621094 719.296875 705.8125 717.140625 697.039062 717.554688 L 689.117188 716.097656 C 689.601562 716.261719 688.140625 715.8125 687.640625 715.707031 C 686.789062 715.519531 685.90625 715.597656 685.042969 715.703125 C 682.09375 716.0625 679.382812 716.664062 676.554688 717.554688 C 673.117188 718.632812 670.960938 720.429688 668.5 722.257812 C 670.605469 722.210938 672.683594 722.335938 674.671875 722.652344 C 677.058594 723.027344 679.53125 723.082031 681.894531 723.535156 C 682.429688 723.640625 682.992188 724.070312 683.503906 724.542969 C 683.691406 724.714844 683.980469 724.945312 684.128906 725.058594 C 684.433594 724.890625 684.820312 724.929688 685.082031 725.179688 C 685.40625 725.488281 685.417969 726 685.109375 726.320312 C 684.890625 726.550781 684.65625 726.667969 684.414062 726.71875 C 684.101562 726.78125 683.761719 726.722656 683.410156 726.53125 C 683.058594 726.335938 682.667969 725.960938 682.269531 725.601562 C 682.039062 725.394531 681.828125 725.167969 681.589844 725.121094 C 679.246094 724.671875 676.785156 724.621094 674.421875 724.246094 C 671.71875 723.820312 668.839844 723.757812 665.976562 724.019531 C 665.933594 724.046875 665.890625 724.074219 665.847656 724.101562 C 662.578125 726.144531 659.078125 727.183594 655.695312 728.949219 C 652.582031 730.578125 651.652344 733.328125 650.789062 736.132812 C 650.957031 736.324219 651.09375 736.628906 651.070312 737.054688 C 651.027344 737.8125 650.445312 739.472656 650.390625 739.785156 C 649.710938 743.761719 648.390625 747.65625 647.390625 751.574219 C 643.792969 765.65625 637.804688 779.125 633.414062 792.972656 C 633.40625 791.589844 633.566406 790.179688 633.835938 788.964844 C 633.941406 788.476562 634.945312 786.25 634.6875 785.800781 C 634.65625 785.738281 634.394531 785.835938 634.046875 786 C 638.082031 774.433594 642.800781 763.023438 645.824219 751.175781 C 646.625 748.027344 647.640625 744.898438 648.351562 741.726562 Z M 266.632812 767.523438 C 266.667969 767.667969 266.699219 767.8125 266.730469 767.957031 C 262.796875 764.492188 258.851562 761.089844 255.410156 757.023438 C 251.074219 751.894531 248.511719 745.808594 242.835938 741.929688 C 237.160156 738.054688 228.722656 736.445312 222.347656 733.9375 C 218.078125 732.253906 213.894531 730.519531 209.492188 729.175781 C 208.992188 729.019531 204.660156 727.578125 203.800781 727.3125 L 203.71875 727.285156 C 203.324219 727.203125 203.046875 726.832031 203.082031 726.417969 C 203.105469 726.222656 203.183594 726.042969 203.351562 725.894531 C 203.425781 725.824219 203.601562 725.667969 203.945312 725.691406 C 203.964844 725.691406 204.082031 725.707031 204.277344 725.765625 C 205.136719 726.03125 209.464844 727.472656 209.96875 727.628906 C 214.40625 728.988281 218.628906 730.734375 222.941406 732.433594 C 229.417969 734.980469 237.976562 736.65625 243.746094 740.59375 C 249.550781 744.558594 252.210938 750.738281 256.644531 755.984375 C 259.480469 759.335938 262.664062 762.230469 265.902344 765.082031 C 266.136719 764.214844 266.207031 763.203125 266.339844 762.433594 C 266.605469 760.90625 266.941406 759.371094 267.246094 757.851562 C 267.5 756.597656 268.070312 755.449219 268.148438 754.15625 C 268.238281 752.683594 267.996094 750.472656 268.449219 749.183594 L 288.066406 788.578125 C 288.445312 788.378906 288.96875 788.230469 289.585938 788.167969 C 291.183594 787.996094 293.527344 788.21875 294.363281 788.160156 C 300.527344 787.691406 306.652344 786.449219 312.832031 785.898438 C 328.945312 784.460938 345.257812 785.125 361.417969 784.804688 C 371.328125 784.609375 381.96875 782.886719 391.808594 783.71875 C 392.25 783.757812 392.582031 784.148438 392.542969 784.59375 C 392.507812 785.035156 392.113281 785.367188 391.671875 785.328125 C 381.886719 784.5 371.304688 786.226562 361.449219 786.421875 C 345.324219 786.738281 329.050781 786.074219 312.972656 787.507812 C 306.789062 788.058594 300.65625 789.300781 294.484375 789.769531 C 293.765625 789.824219 291.9375 789.664062 290.421875 789.726562 C 289.976562 789.742188 289.554688 789.78125 289.214844 789.855469 C 289.042969 789.894531 288.890625 789.90625 288.816406 789.988281 C 288.808594 790 288.796875 790.011719 288.785156 790.023438 L 289.660156 791.777344 L 288.222656 790.269531 C 288.03125 790.273438 287.835938 790.210938 287.679688 790.074219 C 287.476562 789.898438 287.382812 789.648438 287.398438 789.398438 Z M 687.519531 787.902344 C 692.097656 779.019531 696.003906 769.480469 699.875 760.472656 C 701.03125 757.777344 702.46875 755.160156 704.195312 752.796875 C 704.457031 752.4375 705.367188 750.265625 705.859375 750.703125 C 707.964844 752.578125 705.871094 759.707031 705.390625 761.863281 C 703.601562 769.84375 701.867188 777.773438 699.523438 785.585938 C 695.648438 786.703125 691.617188 787.460938 687.519531 787.902344 Z M 254.949219 782.335938 C 240.359375 776.625 225.835938 770.605469 210.980469 765.539062 C 206.640625 764.0625 201.96875 763.710938 197.746094 762.222656 C 196.421875 761.753906 195.289062 761.03125 194.132812 760.34375 C 193.09375 759.726562 192.035156 759.136719 190.75 758.875 C 190.097656 758.738281 187.34375 758.320312 185.339844 758.320312 C 184.90625 758.324219 184.507812 758.34375 184.183594 758.394531 C 184.09375 758.410156 183.992188 758.4375 183.910156 758.460938 C 183.855469 758.75 183.648438 759 183.347656 759.089844 C 182.917969 759.21875 182.46875 758.976562 182.339844 758.550781 C 182.230469 758.179688 182.285156 757.863281 182.449219 757.585938 C 182.609375 757.320312 182.921875 757.066406 183.40625 756.917969 C 183.953125 756.75 184.816406 756.6875 185.78125 756.710938 C 187.84375 756.761719 190.429688 757.160156 191.074219 757.292969 C 192.550781 757.59375 193.769531 758.246094 194.957031 758.953125 C 196.023438 759.589844 197.0625 760.269531 198.28125 760.699219 C 202.5 762.191406 207.167969 762.535156 211.5 764.011719 C 226.734375 769.207031 241.613281 775.402344 256.574219 781.238281 C 256.007812 781.566406 255.460938 781.925781 254.949219 782.335938 Z M 117.734375 780.472656 C 112.410156 779.222656 107.53125 776.785156 103.433594 773.03125 C 99.902344 769.792969 96.109375 765.136719 94.527344 760.53125 C 91.417969 751.492188 96.949219 740.5625 101.78125 733.316406 C 114.097656 714.84375 135.71875 700.855469 157.378906 696.523438 C 161.558594 695.6875 165.425781 695.609375 169.632812 695.363281 C 171.425781 695.257812 173.75 694.855469 175.410156 695.714844 C 178.820312 697.480469 181.113281 700.753906 182.671875 704.542969 C 179.941406 704.105469 176 703.328125 175.289062 703.675781 L 161.667969 704.863281 C 145.761719 710.226562 131.925781 721.644531 119.769531 732.925781 C 113.3125 738.921875 106.621094 746.488281 104.171875 755.082031 C 106.570312 758.71875 110.472656 761.285156 112.503906 765.167969 C 114.925781 769.808594 115.171875 775.601562 117.734375 780.472656 Z M 426.171875 770.386719 L 427.785156 770.386719 C 428.511719 749.847656 431.46875 729.003906 432.617188 708.699219 C 434.761719 670.707031 435.167969 631.902344 435.265625 593.820312 C 435.335938 566.257812 439.722656 541.878906 431.742188 515.464844 C 428.578125 504.996094 424.074219 495.238281 418.542969 486.121094 C 418.652344 486.035156 418.773438 485.886719 418.835938 485.632812 C 418.882812 485.453125 418.863281 485.269531 418.792969 485.109375 L 418.800781 484.796875 C 419.089844 484.003906 419.425781 483.214844 419.746094 482.429688 C 420.503906 480.558594 421.292969 478.699219 422.046875 476.824219 C 424.484375 470.769531 427.433594 464.203125 432.191406 459.601562 C 434.828125 457.050781 437.347656 454.664062 440.171875 452.425781 C 440.296875 452.328125 440.425781 452.175781 440.496094 451.933594 C 440.539062 451.78125 440.566406 451.53125 440.550781 451.214844 C 440.496094 450.050781 439.917969 447.457031 439.882812 447.136719 C 439.578125 444.175781 439.648438 441.132812 439.007812 438.214844 C 438.855469 437.523438 438.464844 436.308594 438.300781 435.195312 C 438.214844 434.617188 438.160156 434.074219 438.332031 433.710938 C 439.429688 431.359375 442.097656 428.964844 443.792969 427.027344 C 447.296875 423.035156 450.605469 418.886719 454.332031 415.101562 C 455.164062 414.25 457.921875 411.976562 459.609375 410.054688 C 459.378906 409.402344 459.183594 408.769531 459.050781 408.199219 C 458.878906 408.425781 458.671875 408.667969 458.449219 408.929688 C 456.789062 410.835938 454.011719 413.121094 453.179688 413.96875 C 449.433594 417.777344 446.101562 421.949219 442.578125 425.964844 C 440.796875 428 438.027344 430.550781 436.867188 433.023438 C 436.589844 433.617188 436.5625 434.496094 436.703125 435.433594 C 436.875 436.585938 437.273438 437.84375 437.429688 438.5625 C 438.058594 441.421875 437.980469 444.402344 438.277344 447.300781 C 438.308594 447.605469 438.800781 450.652344 438.914062 451.367188 C 436.148438 453.578125 433.664062 455.929688 431.066406 458.441406 C 426.152344 463.199219 423.066406 469.964844 420.550781 476.222656 C 419.796875 478.097656 419.003906 479.953125 418.246094 481.824219 C 417.9375 482.589844 417.609375 483.363281 417.320312 484.140625 C 406.230469 466.515625 391.324219 451.339844 374.988281 438.132812 C 366.527344 431.292969 357.378906 425.785156 347.734375 420.800781 C 344.851562 419.308594 341.914062 417.898438 339.074219 416.332031 C 338.429688 415.976562 335.664062 414.527344 335.195312 414.28125 C 335.117188 414.214844 335.023438 414.164062 334.925781 414.128906 C 334.328125 413.941406 334.046875 414.355469 333.996094 414.433594 C 333.945312 414.507812 333.59375 415.179688 334.253906 415.601562 C 334.597656 415.824219 337.574219 417.347656 338.292969 417.746094 C 341.148438 419.320312 344.097656 420.734375 346.992188 422.234375 C 356.539062 427.167969 365.597656 432.621094 373.972656 439.390625 C 399.027344 459.644531 420.714844 484.558594 430.195312 515.929688 C 438.128906 542.1875 433.722656 566.421875 433.648438 593.816406 C 433.550781 631.871094 433.148438 670.644531 431 708.609375 C 429.855469 728.9375 426.902344 749.8125 426.171875 770.386719 Z M 407.035156 770.371094 L 408.671875 770.371094 C 409.957031 763.628906 411.28125 756.890625 412.050781 750.125 C 417.484375 702.199219 420.71875 653.445312 420.574219 605.214844 C 420.511719 584.207031 421.777344 563 418.3125 542.246094 C 415.105469 523.054688 408.546875 505.410156 402.738281 486.871094 C 400.039062 478.253906 396.652344 465.535156 389.878906 459.023438 C 389.558594 458.714844 389.046875 458.722656 388.738281 459.046875 C 388.429688 459.367188 388.441406 459.878906 388.757812 460.1875 C 395.355469 466.53125 398.566406 478.960938 401.195312 487.355469 C 406.980469 505.820312 413.523438 523.398438 416.714844 542.511719 C 420.167969 563.179688 418.894531 584.300781 418.960938 605.21875 C 419.105469 653.390625 415.875 702.082031 410.445312 749.941406 C 409.667969 756.769531 408.332031 763.566406 407.035156 770.371094 Z M 224 704.035156 L 168.777344 633.023438 L 177.34375 628.929688 L 240.308594 708.800781 L 232.71875 706.851562 C 235.855469 708.234375 238.984375 709.625 242.113281 710.960938 C 244.066406 711.792969 246.609375 712.511719 248.878906 713.503906 C 250.488281 714.207031 251.964844 715.042969 253.039062 716.121094 C 256.796875 719.871094 258.21875 725.867188 260.335938 730.578125 C 263.339844 737.273438 267.347656 744.074219 271.78125 750.265625 C 270.957031 750.246094 270.144531 750.070312 269.421875 749.726562 C 265.34375 743.851562 261.671875 737.5 258.859375 731.238281 C 256.820312 726.695312 255.519531 720.882812 251.898438 717.265625 C 250.707031 716.070312 248.945312 715.238281 247.109375 714.523438 C 245.15625 713.761719 243.113281 713.144531 241.480469 712.445312 C 233.566406 709.074219 225.640625 705.320312 217.613281 702.265625 C 216.945312 702.011719 216.277344 701.765625 215.609375 701.515625 C 218.4375 702.324219 221.25 703.207031 224 704.035156 Z M 650.785156 736.144531 L 650.730469 736.3125 Z M 274.894531 363.503906 C 274.382812 363.675781 273.867188 363.839844 273.351562 364 C 274.824219 369.890625 275.894531 375.9375 277.128906 381.871094 C 281.421875 402.546875 284.34375 423.589844 287.878906 444.40625 C 289.148438 451.871094 290.109375 459.324219 291.832031 466.707031 C 292.070312 467.730469 292.121094 470.277344 292.507812 472.085938 C 292.710938 473.050781 293.039062 473.832031 293.441406 474.234375 C 293.65625 474.449219 294.09375 474.625 294.707031 474.578125 C 295.9375 474.488281 298.390625 473.574219 298.925781 473.472656 C 304.152344 472.492188 309.238281 472.417969 314.542969 472.417969 L 318.542969 472.417969 C 318.496094 472.476562 318.441406 472.53125 318.390625 472.585938 C 317.160156 473.878906 315.011719 475.316406 314.371094 475.820312 C 309.621094 479.570312 306.121094 484.226562 301.902344 488.449219 C 301.457031 488.894531 300.152344 490.859375 299.089844 492 L 299.078125 492.007812 C 299.042969 491.964844 299.015625 491.933594 298.996094 491.921875 C 298.820312 491.78125 298.636719 491.742188 298.484375 491.742188 C 298.039062 491.742188 297.675781 492.101562 297.675781 492.550781 C 297.675781 492.714844 297.726562 492.871094 297.8125 492.996094 C 297.753906 493.109375 297.722656 493.234375 297.722656 493.371094 C 297.722656 493.652344 297.871094 493.902344 298.089844 494.046875 C 298.9375 497.648438 300.828125 507.699219 301.203125 509.023438 C 306.539062 528.082031 309.90625 547.984375 314.828125 567.21875 C 321.007812 591.371094 327.480469 615.628906 336.699219 638.832031 C 343.710938 656.476562 351.234375 671.667969 359.226562 688.84375 C 360.628906 691.863281 361.214844 688.746094 359.195312 684.460938 C 351.734375 668.617188 344.683594 654.550781 338.203125 638.238281 C 329.007812 615.097656 322.554688 590.90625 316.394531 566.820312 C 311.46875 547.570312 308.097656 527.660156 302.757812 508.589844 C 302.386719 507.273438 300.515625 497.34375 299.660156 493.679688 C 299.851562 493.523438 300.058594 493.328125 300.269531 493.101562 C 301.320312 491.976562 302.601562 490.03125 303.042969 489.589844 C 307.21875 485.417969 310.675781 480.800781 315.371094 477.09375 C 316.039062 476.5625 318.277344 475.054688 319.558594 473.699219 C 320.277344 472.945312 320.6875 472.179688 320.6875 471.613281 C 320.6875 471.167969 320.324219 470.804688 319.878906 470.804688 L 314.539062 470.804688 C 309.136719 470.804688 303.953125 470.886719 298.628906 471.886719 C 298.167969 471.972656 296.273438 472.675781 295 472.914062 C 294.828125 472.941406 294.613281 472.957031 294.488281 472.964844 C 294.425781 472.871094 294.375 472.75 294.324219 472.617188 C 294.160156 472.171875 294.042969 471.597656 293.949219 470.980469 C 293.6875 469.261719 293.613281 467.230469 293.402344 466.335938 C 291.6875 458.988281 290.734375 451.570312 289.472656 444.136719 C 285.933594 423.296875 283.007812 402.238281 278.710938 381.542969 C 277.464844 375.550781 276.382812 369.449219 274.894531 363.503906 Z M 607.59375 685.132812 L 607.332031 685.132812 L 607.355469 685.097656 C 607.570312 684.785156 607.882812 684.457031 608.234375 684.132812 C 609.40625 683.050781 611.003906 682.027344 611.476562 681.699219 C 616.039062 678.535156 621.113281 676.644531 626.3125 674.820312 C 626.734375 674.667969 626.953125 674.207031 626.808594 673.789062 C 626.660156 673.367188 626.195312 673.144531 625.777344 673.292969 C 620.441406 675.171875 615.238281 677.125 610.558594 680.371094 C 609.972656 680.777344 607.757812 682.207031 606.535156 683.550781 C 605.835938 684.3125 605.472656 685.101562 605.535156 685.714844 C 605.578125 686.128906 605.847656 686.492188 606.359375 686.664062 C 606.867188 686.835938 607.734375 686.789062 608.09375 686.691406 C 608.488281 686.585938 608.664062 686.335938 608.722656 686.226562 C 608.824219 686.023438 608.835938 685.828125 608.785156 685.632812 C 608.746094 685.5 608.675781 685.351562 608.527344 685.222656 C 608.257812 684.992188 607.886719 684.96875 607.59375 685.132812 Z M 607.417969 686.394531 L 607.433594 686.410156 L 607.410156 686.386719 Z M 607.394531 686.371094 L 607.40625 686.382812 L 607.382812 686.355469 Z M 184.261719 682.765625 C 184.199219 682.960938 184.210938 683.179688 184.3125 683.378906 C 184.515625 683.777344 185 683.933594 185.398438 683.730469 C 185.558594 683.652344 185.710938 683.515625 185.808594 683.285156 C 185.871094 683.136719 185.921875 682.804688 185.851562 682.351562 C 185.65625 681.113281 184.726562 678.230469 184.683594 678.109375 C 183.160156 673.578125 180.667969 669.90625 177.007812 666.804688 C 166.242188 657.667969 152.054688 653.6875 138.148438 653.34375 C 137.707031 653.332031 137.332031 653.6875 137.324219 654.132812 C 137.3125 654.578125 137.664062 654.949219 138.109375 654.960938 C 151.652344 655.289062 165.480469 659.136719 175.964844 668.035156 C 179.390625 670.945312 181.726562 674.382812 183.152344 678.625 C 183.191406 678.738281 184.132812 682.273438 184.261719 682.765625 Z M 601.84375 680.921875 C 602.324219 679.578125 603.492188 678.140625 604.855469 676.730469 C 607.03125 674.476562 609.714844 672.316406 611.261719 670.769531 C 622.113281 659.917969 635.777344 650.546875 650.859375 647.09375 C 651.296875 646.992188 651.566406 646.558594 651.46875 646.125 C 651.367188 645.691406 650.933594 645.417969 650.5 645.519531 C 635.125 649.042969 621.183594 658.566406 610.117188 669.628906 C 608.566406 671.179688 605.875 673.347656 603.691406 675.609375 C 602.148438 677.207031 600.863281 678.859375 600.320312 680.378906 C 600.171875 680.800781 600.390625 681.261719 600.808594 681.410156 C 601.230469 681.5625 601.691406 681.34375 601.84375 680.921875 Z M 182.726562 663.035156 C 176.574219 653.761719 171.503906 648.15625 160.988281 642.894531 C 160.589844 642.695312 160.105469 642.855469 159.902344 643.253906 C 159.703125 643.652344 159.867188 644.136719 160.265625 644.339844 C 170.484375 649.453125 175.402344 654.914062 181.378906 663.929688 C 181.625 664.300781 182.125 664.402344 182.496094 664.15625 C 182.871094 663.910156 182.972656 663.40625 182.726562 663.035156 Z M 496.878906 356.390625 L 494.917969 355.738281 C 497.660156 363.097656 499.929688 370.828125 501.464844 378.496094 C 505.070312 396.523438 507.847656 415.03125 510.074219 433.285156 C 510.433594 436.226562 512.195312 443.570312 512.558594 449.019531 C 512.699219 451.132812 512.660156 452.941406 512.160156 454.015625 C 512.082031 454.050781 511.828125 454.15625 511.625 454.199219 C 511.109375 454.316406 510.429688 454.386719 509.644531 454.421875 C 505.78125 454.609375 499.640625 454.003906 498.648438 453.894531 C 498.53125 453.882812 494.578125 453.265625 493.785156 453.167969 C 493.554688 453.140625 493.414062 453.164062 493.390625 453.167969 C 493.15625 453.214844 493.03125 453.332031 492.964844 453.40625 C 492.804688 453.574219 492.742188 453.761719 492.742188 453.960938 C 492.742188 454.160156 492.796875 454.386719 492.929688 454.621094 C 493.089844 454.90625 493.410156 455.246094 493.839844 455.585938 C 494.929688 456.457031 496.824219 457.457031 497.300781 457.859375 C 501.777344 461.648438 507.191406 464.28125 511.324219 468.355469 C 511.324219 468.609375 511.316406 469.5 511.226562 470.277344 C 510.886719 473.3125 509.949219 478.136719 509.90625 478.960938 C 509.28125 490.855469 507.425781 502.539062 505.320312 514.246094 C 498.734375 550.816406 475.378906 621.460938 475.378906 621.460938 L 474.914062 627.300781 C 474.914062 627.300781 500.300781 551.230469 506.910156 514.53125 C 509.027344 502.757812 510.890625 491.003906 511.519531 479.042969 C 511.566406 478.109375 512.78125 471.980469 512.941406 469.246094 C 512.976562 468.671875 512.960938 468.222656 512.902344 467.953125 C 512.839844 467.65625 512.714844 467.460938 512.597656 467.347656 C 508.417969 463.167969 502.902344 460.484375 498.34375 456.625 C 498.003906 456.339844 496.964844 455.753906 495.988281 455.125 C 497.203125 455.308594 498.40625 455.492188 498.472656 455.5 C 499.636719 455.628906 507.714844 456.40625 511.3125 455.898438 C 512.070312 455.789062 512.65625 455.613281 513.011719 455.394531 C 513.285156 455.226562 513.464844 455.023438 513.570312 454.8125 C 514.1875 453.574219 514.339844 451.433594 514.171875 448.910156 C 513.804688 443.429688 512.039062 436.050781 511.679688 433.089844 C 509.449219 414.796875 506.660156 396.25 503.046875 378.179688 C 501.578125 370.847656 499.449219 363.460938 496.878906 356.390625 Z M 547.753906 631.421875 C 550.25 623.042969 551.730469 614.757812 552.875 605.269531 C 553.277344 605.316406 553.445312 605.597656 553.511719 605.996094 C 556.710938 589.46875 560.414062 572.976562 561.691406 556.40625 C 562.367188 547.59375 560.574219 538.515625 559.882812 529.761719 C 558.398438 510.914062 557.953125 492.023438 556.1875 473.179688 C 554.394531 454.042969 554.507812 428.46875 546.332031 410.921875 C 546.144531 410.519531 545.660156 410.34375 545.257812 410.53125 C 544.855469 410.71875 544.679688 411.203125 544.867188 411.605469 C 552.972656 429 552.800781 454.363281 554.582031 473.332031 C 556.347656 492.164062 556.785156 511.050781 558.273438 529.890625 C 558.960938 538.558594 560.753906 547.554688 560.082031 556.285156 C 558.148438 581.382812 550.636719 606.300781 547.753906 631.421875 Z M 220.035156 619.261719 C 220.269531 619.722656 220.488281 620.296875 220.644531 620.996094 C 220.945312 622.308594 221.179688 623.632812 221.378906 624.964844 C 223.882812 578.644531 219.890625 529.058594 212.78125 483.722656 C 210.25 467.613281 208.390625 451.40625 203.386719 435.816406 C 201.691406 430.519531 199.65625 425.316406 196.558594 420.667969 C 195.542969 419.144531 194.351562 417.734375 193.246094 416.277344 C 192.664062 415.511719 191.417969 413.351562 191.160156 413.097656 C 190.765625 412.703125 190.363281 412.84375 190.203125 412.917969 C 190.054688 412.988281 189.921875 413.105469 189.828125 413.285156 C 189.792969 413.355469 189.660156 413.648438 189.847656 414.160156 C 189.921875 414.359375 190.066406 414.515625 190.242188 414.605469 C 190.65625 415.277344 191.546875 416.710938 191.960938 417.253906 C 193.046875 418.6875 194.21875 420.070312 195.214844 421.566406 C 198.230469 426.089844 200.199219 431.15625 201.851562 436.308594 C 206.828125 451.820312 208.667969 467.949219 211.183594 483.972656 C 217.992188 527.371094 221.9375 574.675781 220.035156 619.261719 Z M 335.121094 415.574219 C 335.023438 415.636719 334.910156 415.679688 334.792969 415.699219 C 334.675781 415.714844 334.550781 415.707031 334.429688 415.667969 C 334.753906 415.769531 334.976562 415.683594 335.121094 415.574219 Z M 339.867188 344.496094 L 339.921875 344.550781 C 354.804688 358.722656 373.582031 373.800781 395.503906 370.511719 C 405.167969 369.066406 415.910156 358.355469 422.546875 352.148438 C 425.402344 349.476562 428.679688 347.222656 431.042969 344.070312 C 433.914062 340.238281 436.671875 336.375 439.355469 332.40625 C 439.550781 332.125 443.761719 327.191406 443.84375 327.441406 C 444.300781 328.808594 440.824219 333.804688 440.316406 334.859375 C 436.820312 342.066406 433.738281 349.339844 429.902344 356.394531 C 426.144531 363.308594 421.613281 370.109375 416.324219 375.957031 C 397.636719 396.609375 375.265625 388.851562 355.835938 374.28125 C 353.328125 372.402344 349.886719 371.289062 347.679688 369.007812 C 347.183594 367.429688 346.683594 365.855469 346.179688 364.277344 C 345.359375 361.703125 344.554688 359.144531 343.820312 356.546875 C 343.761719 356.34375 343.695312 354.550781 343.632812 354.527344 C 342.660156 351.070312 341.367188 347.738281 339.867188 344.496094 Z M 333.671875 235.296875 C 334.351562 242.019531 334.25 248.738281 332.253906 255.445312 C 330.335938 261.890625 326.640625 267.886719 322.941406 273.574219 C 321.976562 275.558594 321.035156 277.578125 320.195312 279.679688 C 316.726562 288.347656 315.257812 297.929688 315.195312 307.234375 C 315.121094 318.941406 318.671875 330.726562 323.332031 341.367188 C 324.910156 344.96875 326.203125 348.695312 328.007812 352.199219 C 328.289062 352.746094 330.734375 357.339844 330.496094 357.394531 C 329.730469 357.570312 328.871094 357.042969 328.046875 356.265625 C 328.972656 357.664062 329.746094 358.882812 329.648438 358.960938 C 328.273438 360.101562 321.640625 355.300781 320.390625 354.734375 C 309.871094 349.96875 299.921875 346.285156 290.445312 339.261719 C 262.367188 318.453125 246.074219 283.789062 251.882812 249.035156 C 254.308594 234.515625 263.207031 221.101562 264.121094 206.558594 C 264.804688 195.675781 262.117188 184.992188 262.175781 174.144531 C 262.28125 155.070312 269.667969 134.496094 281.265625 119.519531 C 300.144531 95.140625 328.179688 80.980469 359.566406 84.484375 C 369.695312 85.617188 379.867188 88.539062 388.863281 93.386719 C 389.800781 93.890625 398.84375 98.089844 397.804688 100.558594 L 402.34375 101.8125 C 416.53125 98.945312 432.542969 100.222656 446.632812 102.925781 C 452.867188 104.121094 459.890625 105.394531 465.113281 109.183594 C 491.128906 128.03125 490.089844 166.660156 483.378906 194.160156 C 482.175781 199.09375 480.402344 203.925781 478.621094 208.730469 C 476.457031 204.074219 472.796875 198.949219 469.703125 203.40625 C 465.542969 209.398438 463.660156 222.175781 464.570312 228.992188 C 463.914062 229.472656 461.855469 226.390625 461.671875 226.105469 C 459.738281 223.089844 457.769531 219.902344 456.726562 216.457031 C 456.605469 216.058594 456.050781 213.128906 455.65625 213.054688 C 455.089844 212.945312 454.542969 213.445312 453.96875 213.402344 C 452.183594 213.261719 450.289062 213.023438 448.597656 212.421875 C 443.414062 210.582031 438.8125 207.726562 435.015625 203.679688 C 428.945312 197.207031 425.203125 188.5 421.207031 180.679688 C 419.835938 177.996094 418.820312 174.605469 416.804688 172.3125 C 412.984375 167.96875 405.300781 165.167969 400.171875 168.988281 C 397.527344 170.953125 395.515625 175.097656 394.03125 177.949219 L 386.878906 179.683594 C 387.464844 179.5 385.960938 178.847656 385.652344 178.320312 C 384.878906 176.984375 384.035156 175.609375 382.992188 174.464844 C 380.378906 171.59375 376.613281 167.671875 373.101562 165.984375 C 361.277344 160.308594 346.050781 164.410156 338.179688 174.710938 C 334.140625 180 330.601562 187.34375 328.964844 194.542969 C 328.828125 197.058594 328.785156 199.589844 328.886719 202.152344 C 329.292969 212.625 332.242188 223.144531 333.492188 233.664062 C 339.671875 231.785156 347.078125 229.867188 353.421875 230.800781 C 353.863281 230.867188 354.167969 231.277344 354.105469 231.71875 C 354.039062 232.15625 353.628906 232.464844 353.1875 232.398438 C 346.964844 231.480469 339.699219 233.453125 333.671875 235.296875 Z M 384.34375 337.464844 C 389.800781 336.941406 394.667969 335.3125 400.320312 335.3125 C 400.769531 335.3125 401.128906 334.949219 401.128906 334.503906 C 401.128906 334.058594 400.769531 333.699219 400.320312 333.699219 C 394.617188 333.699219 389.703125 335.332031 384.1875 335.855469 C 383.746094 335.898438 383.417969 336.296875 383.460938 336.738281 C 383.503906 337.183594 383.898438 337.507812 384.34375 337.464844 Z M 381.566406 278.796875 C 381.75 278.648438 381.871094 278.417969 381.871094 278.164062 C 381.871094 277.71875 381.507812 277.355469 381.0625 277.355469 C 380.789062 277.355469 380.398438 277.503906 380.148438 277.984375 C 379.867188 278.523438 379.640625 279.886719 379.605469 280.078125 C 379.089844 282.726562 378.5 285.347656 378.042969 288.007812 C 377.398438 291.726562 375.613281 296.347656 375.089844 300.527344 C 374.523438 305.066406 375.394531 309.097656 380.183594 311.226562 C 380.800781 311.5 381.492188 311.949219 382.199219 312.265625 C 382.777344 312.527344 383.371094 312.699219 383.945312 312.699219 C 384.390625 312.699219 384.75 312.335938 384.75 311.890625 C 384.75 311.445312 384.390625 311.082031 383.945312 311.082031 C 383.480469 311.082031 383.003906 310.871094 382.539062 310.636719 C 381.945312 310.339844 381.363281 309.984375 380.84375 309.746094 C 376.824219 307.964844 376.21875 304.53125 376.695312 300.730469 C 377.214844 296.570312 378.996094 291.980469 379.632812 288.28125 C 380.089844 285.632812 380.679688 283.023438 381.1875 280.382812 C 381.214844 280.253906 381.496094 279.085938 381.566406 278.796875 Z M 398.929688 305.542969 C 399.070312 305.582031 399.226562 305.582031 399.375 305.535156 C 399.800781 305.40625 400.039062 304.953125 399.910156 304.527344 C 399.839844 304.296875 399.699219 304.113281 399.457031 303.996094 C 399.289062 303.914062 398.886719 303.851562 398.347656 304.019531 C 397 304.429688 393.792969 306.117188 393.402344 306.410156 C 393.046875 306.679688 392.972656 307.183594 393.242188 307.539062 C 393.507812 307.898438 394.015625 307.96875 394.371094 307.703125 C 394.648438 307.492188 396.515625 306.515625 397.890625 305.921875 C 398.277344 305.753906 398.734375 305.605469 398.929688 305.542969 Z M 480.746094 234.191406 C 486.066406 233.757812 491.296875 234.871094 494.527344 237.921875 C 504.730469 247.546875 508.527344 263.515625 504.117188 276.769531 C 499.078125 291.898438 484.394531 301.722656 469.199219 303.1875 C 464.507812 303.640625 457.777344 302.507812 453.273438 299.246094 C 454.1875 296.242188 455.085938 293.230469 455.929688 290.207031 C 457 286.359375 458.015625 282.480469 459.355469 278.710938 C 459.546875 278.164062 460.085938 275.445312 460.527344 275.144531 C 464.398438 272.515625 468.539062 270.714844 471.046875 266.433594 C 476.609375 256.9375 479.585938 245.472656 480.746094 234.191406 Z M 352.855469 264.15625 C 352.648438 263.417969 350.222656 263.722656 349.902344 264.4375 C 348.382812 267.8125 348.414062 277.515625 353.449219 278.019531 C 355.054688 278.179688 355.5 276.304688 355.664062 274.996094 C 356.039062 272 355.722656 268.132812 354.011719 265.566406 Z M 416.488281 256.046875 C 416.148438 255.871094 414.90625 255.191406 414.355469 255.25 C 413.289062 255.355469 412.601562 256.695312 412.339844 257.585938 C 411.4375 260.652344 411.707031 267.324219 414.960938 269.273438 C 420.003906 272.300781 418.714844 260.9375 418.425781 258.914062 Z M 370.535156 242.519531 C 370.515625 242.4375 370.484375 242.359375 370.4375 242.285156 C 370.195312 241.910156 369.695312 241.804688 369.316406 242.046875 C 369.003906 242.25 368.835938 242.558594 368.957031 243.011719 C 368.992188 243.148438 369.105469 243.367188 369.316406 243.597656 C 369.710938 244.027344 370.582031 244.699219 370.648438 244.761719 C 371.503906 245.539062 372.320312 246.386719 372.992188 247.324219 C 375.609375 250.964844 378.316406 254.839844 379.417969 259.253906 C 379.527344 259.6875 379.964844 259.949219 380.394531 259.839844 C 380.828125 259.734375 381.089844 259.292969 380.984375 258.863281 C 379.832031 254.253906 377.035156 250.183594 374.304688 246.382812 C 373.566406 245.355469 372.675781 244.417969 371.738281 243.566406 C 371.679688 243.515625 370.808594 242.753906 370.535156 242.519531 Z M 416.488281 256.046875 L 416.457031 256.003906 C 416.613281 256.109375 416.601562 256.109375 416.488281 256.046875 Z M 370.398438 243.214844 C 370.371094 243.253906 370.339844 243.285156 370.308594 243.316406 C 370.273438 243.347656 370.234375 243.375 370.195312 243.402344 C 370.277344 243.347656 370.34375 243.289062 370.398438 243.214844 Z M 477.171875 221.679688 C 476.894531 221.578125 476.742188 221.292969 476.585938 220.972656 C 476.335938 220.46875 476.144531 219.855469 475.929688 219.265625 C 475.355469 217.679688 474.53125 216.335938 472.890625 216.335938 C 471.992188 216.335938 471.214844 216.90625 470.632812 217.855469 C 469.609375 219.523438 469.148438 222.4375 468.976562 223.394531 C 467.921875 229.339844 467.679688 235.941406 468.503906 241.933594 C 468.566406 242.378906 468.972656 242.683594 469.414062 242.625 C 469.855469 242.5625 470.164062 242.15625 470.105469 241.714844 C 469.300781 235.882812 469.539062 229.460938 470.566406 223.679688 C 470.699219 222.933594 471.007812 220.871094 471.675781 219.347656 C 471.867188 218.910156 472.085938 218.519531 472.351562 218.242188 C 472.511719 218.078125 472.679688 217.949219 472.894531 217.949219 C 473.355469 217.949219 473.636719 218.230469 473.863281 218.589844 C 474.085938 218.945312 474.253906 219.378906 474.414062 219.816406 C 474.703125 220.613281 474.964844 221.433594 475.332031 222.046875 C 475.664062 222.601562 476.085938 223 476.617188 223.195312 C 477.035156 223.351562 477.5 223.136719 477.652344 222.714844 C 477.804688 222.296875 477.589844 221.832031 477.171875 221.679688 Z M 404.636719 225.945312 C 408.164062 225.253906 412.546875 222.84375 416.1875 221.777344 C 424.582031 219.316406 435.550781 218.039062 444.1875 219.765625 C 444.625 219.855469 445.050781 219.570312 445.140625 219.132812 C 445.226562 218.699219 444.941406 218.269531 444.507812 218.183594 C 435.628906 216.410156 424.359375 217.699219 415.730469 220.230469 C 412.136719 221.28125 407.8125 223.675781 404.324219 224.363281 C 403.886719 224.449219 403.597656 224.871094 403.6875 225.308594 C 403.773438 225.746094 404.199219 226.03125 404.636719 225.945312 Z M 404.636719 225.945312 " fill-opacity="1" fill-rule="evenodd"/></svg>