<svg xmlns="http://www.w3.org/2000/svg" xmlns:xlink="http://www.w3.org/1999/xlink" width="200" zoomAndPan="magnify" viewBox="0 0 150 74.999997" height="100" preserveAspectRatio="xMidYMid meet" version="1.0"><defs><g/></defs><g fill="#24305E" fill-opacity="1"><g transform="translate(6.346854, 52.689057)"><g><path d="M 2.921875 0 L 2.921875 -41.890625 L 11.546875 -41.890625 L 11.546875 -22.359375 L 11.640625 -22.359375 C 13.878906 -24.597656 16.265625 -25.71875 18.796875 -25.71875 C 20.035156 -25.71875 21.257812 -25.550781 22.46875 -25.21875 C 23.6875 -24.894531 24.851562 -24.394531 25.96875 -23.71875 C 27.09375 -23.039062 28.003906 -22.078125 28.703125 -20.828125 C 29.398438 -19.578125 29.75 -18.125 29.75 -16.46875 L 29.75 0 L 21.140625 0 L 21.140625 -14.125 C 21.140625 -15.425781 20.722656 -16.5625 19.890625 -17.53125 C 19.066406 -18.507812 17.988281 -19 16.65625 -19 C 15.351562 -19 14.175781 -18.492188 13.125 -17.484375 C 12.070312 -16.472656 11.546875 -15.351562 11.546875 -14.125 L 11.546875 0 Z M 2.921875 0 "/></g></g></g><g fill="#24305E" fill-opacity="1"><g transform="translate(33.961171, 52.689057)"><g><path d="M 3.75 -38.90625 C 4.757812 -39.914062 5.960938 -40.421875 7.359375 -40.421875 C 8.753906 -40.421875 9.953125 -39.914062 10.953125 -38.90625 C 11.960938 -37.90625 12.46875 -36.707031 12.46875 -35.3125 C 12.46875 -33.914062 11.960938 -32.710938 10.953125 -31.703125 C 9.953125 -30.703125 8.753906 -30.203125 7.359375 -30.203125 C 5.960938 -30.203125 4.757812 -30.703125 3.75 -31.703125 C 2.738281 -32.710938 2.234375 -33.914062 2.234375 -35.3125 C 2.234375 -36.707031 2.738281 -37.90625 3.75 -38.90625 Z M 2.921875 -24.984375 L 2.921875 0 L 11.546875 0 L 11.546875 -24.984375 Z M 2.921875 -24.984375 "/></g></g></g><g fill="#24305E" fill-opacity="1"><g transform="translate(44.091045, 52.689057)"><g/></g></g><g fill="#24305E" fill-opacity="1"><g transform="translate(52.808524, 52.689057)"><g><path d="M 3.75 -38.90625 C 4.757812 -39.914062 5.960938 -40.421875 7.359375 -40.421875 C 8.753906 -40.421875 9.953125 -39.914062 10.953125 -38.90625 C 11.960938 -37.90625 12.46875 -36.707031 12.46875 -35.3125 C 12.46875 -33.914062 11.960938 -32.710938 10.953125 -31.703125 C 9.953125 -30.703125 8.753906 -30.203125 7.359375 -30.203125 C 5.960938 -30.203125 4.757812 -30.703125 3.75 -31.703125 C 2.738281 -32.710938 2.234375 -33.914062 2.234375 -35.3125 C 2.234375 -36.707031 2.738281 -37.90625 3.75 -38.90625 Z M 2.921875 -24.984375 L 2.921875 2.1875 C 2.921875 4.457031 2.125 5.59375 0.53125 5.59375 C 0.207031 5.59375 -0.128906 5.535156 -0.484375 5.421875 C -0.835938 5.316406 -1.128906 5.195312 -1.359375 5.0625 L -1.65625 4.875 L -4.328125 11.828125 C -4.265625 11.867188 -4.054688 11.96875 -3.703125 12.125 C -3.347656 12.289062 -3.078125 12.410156 -2.890625 12.484375 C -2.710938 12.566406 -2.410156 12.671875 -1.984375 12.796875 C -1.566406 12.929688 -1.160156 13.03125 -0.765625 13.09375 C -0.378906 13.164062 0.101562 13.234375 0.6875 13.296875 C 1.269531 13.359375 1.882812 13.390625 2.53125 13.390625 C 4.15625 13.390625 5.582031 13.101562 6.8125 12.53125 C 8.050781 11.96875 8.992188 11.207031 9.640625 10.25 C 10.296875 9.289062 10.773438 8.285156 11.078125 7.234375 C 11.390625 6.179688 11.546875 5.050781 11.546875 3.84375 L 11.546875 -24.984375 Z M 2.921875 -24.984375 "/></g></g></g><g fill="#24305E" fill-opacity="1"><g transform="translate(62.69488, 52.689057)"><g><path d="M 5.28125 -2.96875 C 2.507812 -5.4375 1.125 -8.601562 1.125 -12.46875 C 1.125 -16.332031 2.566406 -19.503906 5.453125 -21.984375 C 8.347656 -24.472656 11.921875 -25.71875 16.171875 -25.71875 C 20.359375 -25.71875 23.890625 -24.46875 26.765625 -21.96875 C 29.640625 -19.46875 31.078125 -16.300781 31.078125 -12.46875 C 31.078125 -8.632812 29.671875 -5.472656 26.859375 -2.984375 C 24.046875 -0.503906 20.484375 0.734375 16.171875 0.734375 C 11.691406 0.734375 8.0625 -0.5 5.28125 -2.96875 Z M 11.953125 -16.703125 C 10.835938 -15.597656 10.28125 -14.1875 10.28125 -12.46875 C 10.28125 -10.75 10.8125 -9.34375 11.875 -8.25 C 12.945312 -7.164062 14.363281 -6.625 16.125 -6.625 C 17.8125 -6.625 19.195312 -7.175781 20.28125 -8.28125 C 21.375 -9.382812 21.921875 -10.78125 21.921875 -12.46875 C 21.921875 -14.1875 21.359375 -15.597656 20.234375 -16.703125 C 19.117188 -17.804688 17.75 -18.359375 16.125 -18.359375 C 14.46875 -18.359375 13.078125 -17.804688 11.953125 -16.703125 Z M 11.953125 -16.703125 "/></g></g></g><g fill="#24305E" fill-opacity="1"><g transform="translate(90.309197, 52.689057)"><g><path d="M 2.921875 0 L 2.921875 -24.984375 L 11.546875 -24.984375 L 11.546875 -22.359375 L 11.640625 -22.359375 C 13.878906 -24.597656 16.265625 -25.71875 18.796875 -25.71875 C 20.035156 -25.71875 21.257812 -25.550781 22.46875 -25.21875 C 23.6875 -24.894531 24.851562 -24.394531 25.96875 -23.71875 C 27.09375 -23.039062 28.003906 -22.078125 28.703125 -20.828125 C 29.398438 -19.578125 29.75 -18.125 29.75 -16.46875 L 29.75 0 L 21.140625 0 L 21.140625 -14.125 C 21.140625 -15.425781 20.722656 -16.5625 19.890625 -17.53125 C 19.066406 -18.507812 17.988281 -19 16.65625 -19 C 15.351562 -19 14.175781 -18.492188 13.125 -17.484375 C 12.070312 -16.472656 11.546875 -15.351562 11.546875 -14.125 L 11.546875 0 Z M 2.921875 0 "/></g></g></g><g fill="#24305E" fill-opacity="1"><g transform="translate(117.923513, 52.689057)"><g/></g></g><g fill="#24305E" fill-opacity="1"><g transform="translate(126.640992, 52.689057)"><g><path d="M 5.359375 -13.15625 L 4.1875 -41.890625 L 12.8125 -41.890625 L 11.640625 -13.15625 Z M 8.46875 -10.421875 C 10.03125 -10.421875 11.351562 -9.875 12.4375 -8.78125 C 13.53125 -7.695312 14.078125 -6.378906 14.078125 -4.828125 C 14.078125 -3.296875 13.53125 -1.984375 12.4375 -0.890625 C 11.351562 0.191406 10.03125 0.734375 8.46875 0.734375 C 6.945312 0.734375 5.640625 0.191406 4.546875 -0.890625 C 3.460938 -1.984375 2.921875 -3.296875 2.921875 -4.828125 C 2.921875 -6.378906 3.460938 -7.695312 4.546875 -8.78125 C 5.640625 -9.875 6.945312 -10.421875 8.46875 -10.421875 Z M 8.46875 -10.421875 "/></g></g></g></svg>